<svg version="1.1" xmlns="http://www.w3.org/2000/svg" xmlns:xlink="http://www.w3.org/1999/xlink" width="48" height="48"><defs><linearGradient x1="13.2413" y1="11.08447" x2="67.0077" y2="69.16451" gradientUnits="userSpaceOnUse" id="color-1"><stop offset="0.87" stop-color="#000000" stop-opacity="0"></stop><stop offset="1" stop-color="#000000" stop-opacity="0"></stop></linearGradient><filter id="dropshadow-base"><feColorMatrix type="matrix" values="0 0 0 0 0  0 0 0 0 0  0 0 0 0 0  0 0 0 .8 0"></feColorMatrix> <feOffset dx="0" dy="1"></feOffset> <feGaussianBlur stdDeviation="1"></feGaussianBlur> <feComposite in="SourceGraphic"></feComposite></filter><filter id="dropshadow-banner" x="-10%" y="-10%" width="120%" height="130%"><feColorMatrix type="matrix" values="0 0 0 0 0  0 0 0 0 0  0 0 0 0 0  0 0 0 .4 0"></feColorMatrix> <feOffset dx="0" dy="1"></feOffset> <feGaussianBlur stdDeviation="0.5"></feGaussianBlur> <feComposite in="SourceGraphic"></feComposite></filter></defs><g fill="none" fill-rule="nonzero" stroke="none" stroke-width="none" stroke-linecap="butt" stroke-linejoin="miter" stroke-miterlimit="10" stroke-dasharray="" stroke-dashoffset="0" font-family="none" font-weight="none" font-size="none" text-anchor="none" style="mix-blend-mode: normal"><path d="M7,43c-1.10457,0 -2,-0.89543 -2,-2v-34c0,-1.10457 0.89543,-2 2,-2h34c1.10457,0 2,0.89543 2,2v34c0,1.10457 -0.89543,2 -2,2z" id="base 1 17 1" fill="#db985a" stroke-width="1"></path><path d="M14.40325,35.75356c-0.71754,-0.71754 -1.16195,-1.70821 -1.16195,-2.80073v-15.14376c0,-2.18503 1.77769,-3.96269 3.96269,-3.96269h5.74461c0.10449,0 0.19908,0.04235 0.26756,0.11083l0.84094,0.84094c0.05218,-1.44123 0.73764,-2.7589 1.89884,-3.63704c0.15249,-0.11539 0.36406,-0.09756 0.49552,0.03391l1.4198,1.4198c0.34843,-0.22742 0.74169,-0.37324 1.15663,-0.42853v-0.39094c0,-0.20897 0.16936,-0.37839 0.37839,-0.37839c0.10451,0 0.1991,0.04235 0.26756,0.11082l0.88448,0.88448c0.30823,0.14098 0.58732,0.33656 0.82504,0.57428l1.29935,1.29935c-0.10026,-0.43223 -0.29417,-0.83599 -0.56914,-1.18511l-0.52626,-0.52626c-0.13454,-0.13454 -0.14924,-0.35167 -0.02752,-0.50371c0.13061,-0.16316 0.3687,-0.1895 0.53186,-0.05902c0.11203,0.08965 0.21815,0.18473 0.31812,0.28469l1.37854,1.37854c-0.13269,-0.39008 -0.3252,-0.75683 -0.57185,-1.0889l-0.85593,-0.85593c-0.13146,-0.13146 -0.14917,-0.34302 -0.03388,-0.49551c0.12618,-0.16664 0.36335,-0.19958 0.53009,-0.07355c0.18197,0.13762 0.35226,0.28604 0.51026,0.44404l9.63299,9.63299v19.76184c0,1.10457 -0.89543,2 -2,2l-19.3503,0z" fill="url(#color-1)" stroke-width="1"></path><path transform="translate(-6.99723,-6.99723) scale(1.29155,1.29155)" d="M22.28606,32.31942c0,0.1618 -0.13117,0.29297 -0.29297,0.29297h-0.16758c-0.1618,0 -0.29297,-0.13117 -0.29297,-0.29297c0,-0.1618 0.13117,-0.29297 0.29297,-0.29297h0.16758c0.1618,0 0.29297,0.13117 0.29297,0.29297zM28.14863,22.78947v8.14237c0,1.69179 -1.37636,3.06816 -3.06816,3.06816h-6.34237c-1.69179,0 -3.06816,-1.37636 -3.06816,-3.06816v-11.72525c0,-1.69179 1.3764,-3.06816 3.06816,-3.06816h4.44784c0.1618,0 0.29297,0.13117 0.29297,0.29297c0,0.1618 -0.13117,0.29297 -0.29297,0.29297h-4.44784c-1.26949,0 -2.31882,0.9582 -2.46433,2.18925h8.35522c0.16184,0 0.29297,0.13117 0.29297,0.29297c0,0.1618 -0.13113,0.29297 -0.29297,0.29297h-8.37311v11.13932h2.01496c0.1618,0 0.29297,0.13117 0.29297,0.29297c0,0.1618 -0.13117,0.29297 -0.29297,0.29297h-1.99707c0.14551,1.23105 1.1948,2.18925 2.46433,2.18925h6.34237c1.26953,0 2.31882,-0.9582 2.46433,-2.18925h-8.07952c-0.1618,0 -0.29297,-0.13117 -0.29297,-0.29297c0,-0.1618 0.13117,-0.29297 0.29297,-0.29297h8.09745v-7.8494c0,-0.1618 0.13113,-0.29297 0.29297,-0.29297c0.1618,0 0.29297,0.13117 0.29293,0.29297zM23.39641,17.81901c0,0.1618 -0.13117,0.29297 -0.29297,0.29297h-2.38832c-0.1618,0 -0.29297,-0.13117 -0.29297,-0.29297c0,-0.1618 0.13117,-0.29297 0.29297,-0.29297h2.38832c0.1618,0 0.29297,0.13117 0.29297,0.29297zM31.36956,17.01304v0.02488c0,0.1618 -0.13113,0.29297 -0.29297,0.29297c-0.16184,0 -0.29297,-0.13117 -0.29297,-0.29297v-0.02488c0,-0.71785 -0.32242,-1.38765 -0.88469,-1.83757c-0.12629,-0.10109 -0.1468,-0.28547 -0.04566,-0.4118c0.10113,-0.12633 0.28547,-0.14672 0.4118,-0.0457c0.70195,0.56176 1.10453,1.39828 1.10449,2.29507zM32.33006,17.01304v0.26305c0,0.1618 -0.13113,0.29297 -0.29297,0.29297c-0.16184,0 -0.29297,-0.13117 -0.29297,-0.29297v-0.26305c0,-0.98406 -0.45199,-1.89035 -1.24015,-2.48636c-0.12906,-0.09762 -0.15453,-0.28133 -0.05695,-0.41039c0.0977,-0.12902 0.28133,-0.15453 0.41043,-0.05695c0.93586,0.70777 1.47261,1.78437 1.47261,2.95371zM26.47285,15.17546c-0.56223,0.44992 -0.88469,1.11972 -0.88469,1.83757v0.02488c0,0.1618 -0.13117,0.29297 -0.29297,0.29297c-0.16184,0 -0.29297,-0.13117 -0.29297,-0.29297v-0.02488c0,-0.8968 0.40254,-1.73332 1.10449,-2.29507c0.12629,-0.10109 0.31066,-0.08062 0.4118,0.0457c0.10113,0.12633 0.08062,0.3107 -0.04566,0.4118zM25.86781,14.52667c-0.78812,0.59601 -1.24015,1.50226 -1.24015,2.48636v0.26305c0,0.1618 -0.13113,0.29297 -0.29297,0.29297c-0.16184,0 -0.29297,-0.13117 -0.29297,-0.29297v-0.26305c0,-1.16937 0.53676,-2.24593 1.47269,-2.95371c0.12906,-0.09766 0.31277,-0.07207 0.41039,0.05695c0.09758,0.12906 0.07207,0.31281 -0.05699,0.41039zM31.33069,20.1362v0.32191c0,0.32184 -0.26184,0.58367 -0.58367,0.58367h-1.33246c-0.13082,0.51453 -0.59797,0.89629 -1.15262,0.89629c-0.55465,0 -1.02176,-0.38176 -1.15262,-0.89629h-1.48465c-0.32187,0 -0.58371,-0.26184 -0.58371,-0.58367v-0.32191c0,-0.32184 0.26184,-0.58367 0.58371,-0.58367c0.21027,0 0.38133,-0.17105 0.38133,-0.38133v-2.15808c0,-0.5823 0.22672,-1.12965 0.63832,-1.54129c0.34242,-0.34246 0.77746,-0.55598 1.24859,-0.61875v-0.30269c0,-0.1618 0.13113,-0.29297 0.29297,-0.29297c0.16184,0 0.29297,0.13117 0.29297,0.29297v0.30344c1.06211,0.1459 1.88691,1.0734 1.88691,2.18339v2.13394c0,0.21027 0.17105,0.38133 0.38133,0.38133c0.32184,0 0.58367,0.26187 0.58359,0.58371zM28.78929,21.04178h-1.05453c0.1032,0.18496 0.30086,0.31035 0.52726,0.31035c0.22641,0 0.42406,-0.12539 0.52726,-0.31035zM30.74714,20.4558l-0.00227,-0.3198c-0.00141,0 -0.00293,0 -0.00437,0c-0.52914,0.00004 -0.96062,-0.43297 -0.96062,-0.96488v-2.13394c0,-0.88234 -0.70676,-1.60816 -1.57547,-1.61797c-0.0057,-0.00008 -0.01145,-0.00008 -0.01711,-0.00008c-0.00047,0 -0.0009,0.00008 -0.00137,0.00008c-0.00035,0 -0.0007,-0.00004 -0.00105,-0.00004c-0.42562,0.00027 -0.82484,0.16562 -1.12617,0.46695c-0.30098,0.30098 -0.46672,0.70121 -0.46672,1.12699v2.158c0,0.53336 -0.43394,0.96726 -0.96726,0.96726l0.00223,0.31969l1.7091,-0.00074c0.0098,-0.00098 0.01969,-0.00148 0.02973,-0.00148h1.79254c0.00461,0 0.00914,0.00047 0.01371,0.0007zM24.90039,27.76747c0,0.1618 -0.13113,0.29297 -0.29297,0.29297h-5.3962c-0.1618,0 -0.29297,-0.13117 -0.29297,-0.29297c0,-0.1618 0.13117,-0.29297 0.29297,-0.29297h2.1798c-0.0068,-0.00664 -0.01391,-0.01289 -0.02062,-0.01965l-1.84656,-1.84656c-0.80629,-0.80629 -0.80633,-2.1182 -0.00004,-2.92449c0.38992,-0.38988 0.9091,-0.605 1.46187,-0.6057c0.55348,0.0007 1.07265,0.21578 1.46258,0.6057l1.84656,1.84656c0.39051,0.39047 0.60558,0.9098 0.60558,1.46222c0,0.55242 -0.21508,1.07172 -0.60562,1.46226c-0.00676,0.00676 -0.01383,0.01301 -0.02062,0.01965h0.33328c0.16184,0 0.29297,0.13117 0.29297,0.29297zM20.65426,25.91009l2.09582,-2.09586l-0.71613,-0.71613c-0.27945,-0.27941 -0.65176,-0.43359 -1.04828,-0.4341c-0.39582,0.00051 -0.76812,0.15469 -1.04758,0.4341c-0.57781,0.57781 -0.57781,1.51801 0.00004,2.09586zM23.88043,27.04048c0.27988,-0.27984 0.43398,-0.65203 0.43398,-1.04793c0,-0.37117 -0.13543,-0.72144 -0.38297,-0.99437c-0.01648,-0.0182 -0.03348,-0.03605 -0.05098,-0.05355l-0.71613,-0.71609l-2.09582,2.09582l0.71613,0.71613c0.27984,0.27984 0.65199,0.43398 1.04785,0.43394c0.39594,0 0.76808,-0.1541 1.04793,-0.43394z" fill="none" stroke-width="0"></path><path d="M21.78636,34.74495c0,0.20897 -0.16941,0.37838 -0.37838,0.37838h-0.21644c-0.20897,0 -0.37838,-0.16941 -0.37838,-0.37838c0,-0.20897 0.16941,-0.37838 0.37838,-0.37838h0.21644c0.20897,0 0.37838,0.16941 0.37838,0.37838zM29.35816,22.43654v10.51629c0,2.18504 -1.77765,3.96268 -3.96268,3.96268h-8.1915c-2.18504,0 -3.96268,-1.77765 -3.96268,-3.96268v-15.14376c0,-2.18504 1.7777,-3.96268 3.96268,-3.96268h5.74462c0.20897,0 0.37838,0.16941 0.37838,0.37838c0,0.20897 -0.16941,0.37838 -0.37838,0.37838h-5.74462c-1.63961,0 -2.99488,1.23757 -3.18281,2.82753h10.79119c0.20902,0 0.37838,0.16941 0.37838,0.37838c0,0.20897 -0.16936,0.37838 -0.37838,0.37838h-10.8143v14.387h2.60242c0.20897,0 0.37838,0.16941 0.37838,0.37838c0,0.20897 -0.16941,0.37838 -0.37838,0.37838h-2.57931c0.18793,1.58997 1.54315,2.82753 3.18281,2.82753h8.1915c1.63966,0 2.99488,-1.23757 3.18281,-2.82753h-10.43511c-0.20897,0 -0.37838,-0.16941 -0.37838,-0.37838c0,-0.20897 0.16941,-0.37838 0.37838,-0.37838h10.45827v-10.1379c0,-0.20897 0.16936,-0.37838 0.37838,-0.37838c0.20897,0 0.37838,0.16941 0.37833,0.37838zM23.22043,16.01694c0,0.20897 -0.16941,0.37838 -0.37838,0.37838h-3.08463c-0.20897,0 -0.37838,-0.16941 -0.37838,-0.37838c0,-0.20897 0.16941,-0.37838 0.37838,-0.37838h3.08463c0.20897,0 0.37838,0.16941 0.37838,0.37838zM33.51816,14.97598v0.03214c0,0.20897 -0.16936,0.37838 -0.37838,0.37838c-0.20902,0 -0.37838,-0.16941 -0.37838,-0.37838v-0.03214c0,-0.92714 -0.41642,-1.79223 -1.14262,-2.37332c-0.16311,-0.13057 -0.1896,-0.3687 -0.05898,-0.53186c0.13062,-0.16316 0.3687,-0.18949 0.53186,-0.05903c0.90661,0.72554 1.42656,1.80595 1.42651,2.96421zM34.7587,14.97598v0.33974c0,0.20897 -0.16936,0.37838 -0.37838,0.37838c-0.20902,0 -0.37838,-0.16941 -0.37838,-0.37838v-0.33974c0,-1.27096 -0.58377,-2.44148 -1.60172,-3.21126c-0.16669,-0.12608 -0.19958,-0.36335 -0.07356,-0.53004c0.12618,-0.16664 0.36335,-0.19958 0.53009,-0.07356c1.20871,0.91412 1.90196,2.30461 1.90196,3.81486zM27.19381,12.60266c-0.72614,0.5811 -1.14262,1.44618 -1.14262,2.37332v0.03214c0,0.20897 -0.16941,0.37838 -0.37838,0.37838c-0.20902,0 -0.37838,-0.16941 -0.37838,-0.37838v-0.03214c0,-1.15826 0.5199,-2.23867 1.42651,-2.96421c0.16311,-0.13057 0.40124,-0.10413 0.53186,0.05903c0.13062,0.16316 0.10413,0.40129 -0.05898,0.53186zM26.41237,11.76471c-1.0179,0.76978 -1.60172,1.94025 -1.60172,3.21126v0.33974c0,0.20897 -0.16936,0.37838 -0.37838,0.37838c-0.20902,0 -0.37838,-0.16941 -0.37838,-0.37838v-0.33974c0,-1.51031 0.69325,-2.90074 1.90206,-3.81486c0.16669,-0.12613 0.40396,-0.09308 0.53004,0.07356c0.12603,0.16669 0.09308,0.40401 -0.07361,0.53004zM33.46796,19.0097v0.41577c0,0.41567 -0.33817,0.75384 -0.75384,0.75384h-1.72094c-0.16896,0.66454 -0.77231,1.1576 -1.48866,1.1576c-0.71636,0 -1.31965,-0.49306 -1.48866,-1.1576h-1.9175c-0.41572,0 -0.75389,-0.33817 -0.75389,-0.75384v-0.41577c0,-0.41567 0.33817,-0.75384 0.75389,-0.75384c0.27158,0 0.4925,-0.22093 0.4925,-0.4925v-2.78727c0,-0.75208 0.29282,-1.459 0.82442,-1.99065c0.44225,-0.44231 1.00413,-0.71807 1.61262,-0.79915v-0.39095c0,-0.20897 0.16936,-0.37838 0.37838,-0.37838c0.20902,0 0.37838,0.16941 0.37838,0.37838v0.3919c1.37177,0.18843 2.43704,1.38635 2.43704,2.81997v2.75609c0,0.27158 0.22093,0.4925 0.4925,0.4925c0.41567,0 0.75384,0.33822 0.75374,0.75389zM30.18561,20.17931h-1.36198c0.13329,0.23889 0.38857,0.40083 0.68099,0.40083c0.29241,0 0.5477,-0.16195 0.68099,-0.40083zM32.71427,19.42249l-0.00293,-0.41304c-0.00182,0 -0.00378,0 -0.00565,0c-0.68341,0.00005 -1.24069,-0.5592 -1.24069,-1.24619v-2.75609c0,-1.13959 -0.91281,-2.07702 -2.0348,-2.08969c-0.00737,-0.0001 -0.01478,-0.0001 -0.0221,-0.0001c-0.00061,0 -0.00116,0.0001 -0.00177,0.0001c-0.00045,0 -0.00091,-0.00005 -0.00136,-0.00005c-0.54972,0.00035 -1.06533,0.21391 -1.45451,0.60309c-0.38873,0.38873 -0.60279,0.90565 -0.60279,1.45557v2.78717c0,0.68886 -0.56046,1.24927 -1.24927,1.24927l0.00288,0.41289l2.20739,-0.00096c0.01266,-0.00126 0.02543,-0.00192 0.03839,-0.00192h2.31515c0.00595,0 0.01181,0.00061 0.01771,0.00091zM25.1629,28.86588c0,0.20897 -0.16936,0.37838 -0.37838,0.37838h-6.96947c-0.20897,0 -0.37838,-0.16941 -0.37838,-0.37838c0,-0.20897 0.16941,-0.37838 0.37838,-0.37838h2.81532c-0.00878,-0.00858 -0.01796,-0.01665 -0.02664,-0.02538l-2.38493,-2.38493c-1.04136,-1.04136 -1.04141,-2.73576 -0.00005,-3.77712c0.5036,-0.50355 1.17415,-0.78139 1.88808,-0.7823c0.71484,0.00091 1.38539,0.27869 1.88899,0.7823l2.38493,2.38493c0.50436,0.50431 0.78214,1.17506 0.78214,1.88854c0,0.71348 -0.27778,1.38418 -0.78219,1.88859c-0.00873,0.00873 -0.01786,0.0168 -0.02664,0.02538h0.43045c0.20902,0 0.37838,0.16941 0.37838,0.37838zM19.67881,26.46698l2.70685,-2.70691l-0.92492,-0.92492c-0.36093,-0.36088 -0.84178,-0.56001 -1.35391,-0.56066c-0.51122,0.00066 -0.99207,0.19979 -1.353,0.56066c-0.74627,0.74627 -0.74627,1.96058 0.00005,2.70691zM23.84557,27.92694c0.36148,-0.36143 0.56051,-0.84213 0.56051,-1.35345c0,-0.47939 -0.17491,-0.93178 -0.49462,-1.28428c-0.02129,-0.02351 -0.04324,-0.04657 -0.06584,-0.06917l-0.92492,-0.92487l-2.70685,2.70685l0.92492,0.92492c0.36143,0.36143 0.84208,0.56051 1.35335,0.56046c0.51137,0 0.99202,-0.19903 1.35345,-0.56046z" fill="#ffffff" stroke-width="0"></path><path d="M2,24c0,-12.15026 9.84974,-22 22,-22c12.15026,0 22,9.84974 22,22c0,12.15026 -9.84974,22 -22,22c-12.15026,0 -22,-9.84974 -22,-22z" id="base 1 13 1" fill="none" stroke-width="1"></path><path d="M2,24c0,-12.15026 9.84974,-22 22,-22c12.15026,0 22,9.84974 22,22c0,12.15026 -9.84974,22 -22,22c-12.15026,0 -22,-9.84974 -22,-22z" id="base 1 9 1" fill="none" stroke-width="1"></path><path d="M2,24c0,-12.15026 9.84974,-22 22,-22c12.15026,0 22,9.84974 22,22c0,12.15026 -9.84974,22 -22,22c-12.15026,0 -22,-9.84974 -22,-22z" id="base 1 5 1" fill="none" stroke-width="1"></path><path d="M2,24c0,-12.15026 9.84974,-22 22,-22c12.15026,0 22,9.84974 22,22c0,12.15026 -9.84974,22 -22,22c-12.15026,0 -22,-9.84974 -22,-22z" id="base 1 1 1" fill="none" stroke-width="1"></path><g fill="#000000" stroke-width="1" font-family="Roboto, sans-serif" font-weight="400" font-size="14" text-anchor="start"></g><rect x="2" y="2" width="44" height="22" fill="none" stroke-width="1"></rect><path d="M2,24v-22h44v22z" fill="none" stroke-width="1"></path><path d="M2,24v-22h44v22z" fill="none" stroke-width="1"></path><path d="M2,24v-22h44v22z" fill="none" stroke-width="1"></path><path d="M2,24v-22h44v22z" fill="none" stroke-width="1"></path><g fill="#000000" stroke-width="1" font-family="Roboto, sans-serif" font-weight="400" font-size="14" text-anchor="start"></g><rect x="2" y="2" width="44" height="22" fill="none" stroke-width="1"></rect><path d="M2,24v-22h44v22z" fill="none" stroke-width="1"></path><path d="M2,24v-22h44v22z" fill="none" stroke-width="1"></path><path d="M2,24v-22h44v22z" fill="none" stroke-width="1"></path><path d="M2,24v-22h44v22z" fill="none" stroke-width="1"></path><g fill="#000000" stroke-width="1" font-family="Roboto, sans-serif" font-weight="400" font-size="14" text-anchor="start"></g><rect x="2" y="2" width="44" height="22" fill="none" stroke-width="1"></rect><path d="M2,24v-22h44v22z" fill="none" stroke-width="1"></path><path d="M2,24v-22h44v22z" fill="none" stroke-width="1"></path><path d="M2,24v-22h44v22z" fill="none" stroke-width="1"></path><path d="M2,24v-22h44v22z" fill="none" stroke-width="1"></path><g id="Capa_1 1 1" fill="#000000" stroke-width="1" font-family="Roboto, sans-serif" font-weight="400" font-size="14" text-anchor="start"><g><g></g></g><g><g></g></g><g><g></g></g><g><g></g></g><g><g></g></g><g><g></g></g><g><g></g></g><g><g></g></g><g><g></g></g><g></g><g></g><g></g><g></g><g></g><g></g><g></g><g></g><g></g><g></g><g></g><g></g><g></g><g></g><g></g></g><path d="M13,36v-12h30v12z" id="banner 1" fill="#336db6" stroke-width="1" filter="url(#dropshadow-banner)"></path><text x="28" y="33" fill="#ffffff" stroke-width="1" font-family="sans-serif" font-weight="bold" font-size="8" text-anchor="middle">DEV</text><rect x="2" y="2" width="44" height="22" fill="none" stroke-width="1"></rect><path d="M2,24v-22h44v22z" fill="none" stroke-width="1"></path><path d="M2,24v-22h44v22z" fill="none" stroke-width="1"></path><path d="M2,24v-22h44v22z" fill="none" stroke-width="1"></path><path d="M2,24v-22h44v22z" fill="none" stroke-width="1"></path></g></svg>